<svg viewBox="0 0 200 200" xmlns="http://www.w3.org/2000/svg">
  <defs>
    <linearGradient id="logoGradient" x1="0%" y1="0%" x2="100%" y2="100%">
      <stop offset="0%" style="stop-color:#667eea;stop-opacity:1" />
      <stop offset="100%" style="stop-color:#764ba2;stop-opacity:1" />
    </linearGradient>
  </defs>
  
  <!-- Outer circle -->
  <circle cx="100" cy="100" r="95" fill="none" stroke="url(#logoGradient)" stroke-width="2" opacity="0.3"/>
  
  <!-- Inner circle background -->
  <circle cx="100" cy="100" r="85" fill="#fff" opacity="0.9"/>
  
  <!-- Needle and thread -->
  <line x1="70" y1="70" x2="130" y2="130" stroke="#667eea" stroke-width="3" stroke-linecap="round"/>
  <circle cx="68" cy="68" r="5" fill="#667eea"/>
  <path d="M 132 128 Q 140 135 145 145" stroke="#764ba2" stroke-width="2.5" fill="none" stroke-linecap="round"/>
  
  <!-- Decorative flowers -->
  <!-- Flower 1 (top right) -->
  <circle cx="115" cy="80" r="4" fill="#e74c3c"/>
  <circle cx="110" cy="75" r="3" fill="#f39c12"/>
  <circle cx="120" cy="75" r="3" fill="#f39c12"/>
  <circle cx="115" cy="70" r="3" fill="#f39c12"/>
  <circle cx="110" cy="80" r="3" fill="#f39c12"/>
  <circle cx="120" cy="80" r="3" fill="#f39c12"/>
  <circle cx="115" cy="85" r="3" fill="#f39c12"/>
  
  <!-- Flower 2 (bottom left) -->
  <circle cx="85" cy="120" r="4" fill="#764ba2"/>
  <circle cx="80" cy="115" r="3" fill="#9b59b6"/>
  <circle cx="90" cy="115" r="3" fill="#9b59b6"/>
  <circle cx="85" cy="110" r="3" fill="#9b59b6"/>
  <circle cx="80" cy="120" r="3" fill="#9b59b6"/>
  <circle cx="90" cy="120" r="3" fill="#9b59b6"/>
  <circle cx="85" cy="125" r="3" fill="#9b59b6"/>
  
  <!-- Scissors -->
  <path d="M 95 105 Q 90 100 85 98" stroke="#8b4513" stroke-width="2.5" fill="none" stroke-linecap="round"/>
  <circle cx="83" cy="97" r="3.5" fill="#b8860b" stroke="#8b4513" stroke-width="1"/>
  
  <path d="M 95 105 Q 100 110 105 112" stroke="#8b4513" stroke-width="2.5" fill="none" stroke-linecap="round"/>
  <circle cx="107" cy="113" r="3.5" fill="#b8860b" stroke="#8b4513" stroke-width="1"/>
  
  <!-- Center connection -->
  <line x1="92" y1="104" x2="98" y2="106" stroke="#8b4513" stroke-width="2"/>
  
  <!-- Yarn ball -->
  <circle cx="75" cy="100" r="6" fill="#e8a87c" stroke="#d4926d" stroke-width="1.5"/>
  <path d="M 70 95 Q 72 100 68 105" fill="#f0b896" opacity="0.7"/>
  
  <!-- Sparkles -->
  <circle cx="50" cy="60" r="1.5" fill="#667eea" opacity="0.6"/>
  <circle cx="150" cy="65" r="1.5" fill="#764ba2" opacity="0.6"/>
  <circle cx="140" cy="140" r="1.5" fill="#e74c3c" opacity="0.6"/>
  <circle cx="60" cy="140" r="1.5" fill="#f39c12" opacity="0.6"/>
</svg>
